<?xml version="1.0" encoding="UTF-8"?><svg id="a" xmlns="http://www.w3.org/2000/svg" width="10cm" height="10cm" viewBox="0 0 283.46 283.46"><defs><style>.b{fill:#133332;}.c{fill:#a3d5d3;}</style></defs><path class="b" d="M136.87,256.92c-18.08,0-20.03-11.88-20.03-16.98v-64.91l-68.32,3.14h-.9c-10.01-.34-15.74-6.53-15.74-16.98s5.67-17,15.56-17.45l43.15-2.09c-3.85-1.37-8.42-2.93-13.67-4.65-9.62-3.26-11.05-9.3-11.05-12.61,0-2.68.8-5.14,2.31-7.1l.07-.08c1.5-1.87,4.05-4.04,8.11-4.75-3.73-1.36-6.36-3.76-7.67-6.9-.27,1.43-.57,2.78-.9,4.05-3.72,13.79-13.3,15.84-18.68,15.84-4.49,0-8.57-1.36-12.11-4.05-4.34-3.31-6.63-8.11-6.63-13.88,0-3.23,1.04-7.14,3.17-11.95,1.88-4.27,4.02-11.55,6.35-21.63,2.65-12.06,11.1-13.87,15.9-13.87,5.35,0,9.51,1.98,12.08,5.67l7.01-.39c-2.67-.73-5.1-2.15-7.15-4.2l-.15-.16c-2.79-3.03-4.27-6.79-4.27-10.88,0-5.37,2.19-9.86,6.34-13.01,2.54-2.03,5.48-3.13,8.73-3.26l120.35-7.27h.87c4.83,0,9,1.81,12.06,5.23,2.73,3.09,4.1,6.68,4.1,10.7,0,5.35-2.14,9.79-6.18,12.86-1.48,1.23-3.11,2.12-4.89,2.66l25.33-1.45h1.56c17.44,0,19.33,11.47,19.33,16.4,0,4.45-1.88,9.93-5.75,16.77-9.92,17.88-18.53,26.23-27.05,26.23-4.35,0-7.81-1.43-10.08-3.98-1.34,1.81-2.98,3.21-4.88,4.19,5.73,3.57,6.75,8.75,6.75,11.98,0,1.79-.37,3.62-1.1,5.44l-.05.12c-.35.81-.74,1.56-1.18,2.27l28.32-1.37c.44-.02.88-.03,1.3-.03,9.99,0,15.95,6.36,15.95,17.01s-5.65,17.24-15.5,17.8l-73.65,3.43c18.02,4.81,33.11,10.23,44.98,16.16,11.42,5.71,13.82,13.47,13.82,18.98,0,4.27-1.41,8.27-4.18,11.9-3.75,4.93-8.87,7.55-14.8,7.55-4.14,0-9.04-1.81-14.99-5.52-9.06-5.53-19.69-11.29-31.66-17.14v35.21c0,5.11-1.97,16.98-20.27,16.98ZM120.89,134.3c-.4,2.09-1.23,4.1-2.5,6l7.01-.34c-.81-.66-1.56-1.4-2.28-2.21l-.09-.11c-.87-1.05-1.59-2.16-2.15-3.33ZM157.93,129.84c-.44,3.39-1.88,6.36-4.23,8.74l22.83-1.11c-2.62-.91-5.03-1.74-7.22-2.5-3.27-1.15-5.55-1.99-6.99-2.58-1.8-.72-3.24-1.6-4.39-2.56ZM115.58,119.91c1.62,1.19,2.91,2.65,3.84,4.33v-7.81c-1.1,1.42-2.39,2.58-3.84,3.48ZM158.07,110.96c1.6-1.21,3.69-2.08,6.35-2.44-2.95-1.15-4.97-2.63-6.35-4.2v6.64ZM113.97,93.84c2.38,1,4.14,2.28,5.45,3.67v-3.98l-5.45.31ZM200.05,88.91c3.53,1.09,5.95,2.75,7.61,4.59,1.03-2.21,1.71-3.89,2.16-5.16l-9.77.57Z"/><path class="c" d="M199.56,32.04c3.28,0,5.94,1.13,7.97,3.4,1.8,2.03,2.7,4.38,2.7,7.03,0,3.67-1.37,6.52-4.1,8.55-1.56,1.33-3.4,2.03-5.51,2.11l-48.05,2.93v10.43l77.58-4.45h1.41c9.22,0,13.83,3.63,13.83,10.9,0,3.44-1.68,8.13-5.04,14.06-8.67,15.63-16.09,23.44-22.27,23.44-5.08,0-7.62-2.46-7.62-7.38,0-1.72.55-3.75,1.64-6.09,2.73-5.7,4.1-9.73,4.1-12.07,0-1.49-.92-2.23-2.77-2.23-.09,0-.18,0-.28,0h-.59l-60,3.52v41.37c0,3.2-1.13,5.78-3.4,7.73-2.81,2.42-6.25,3.63-10.31,3.63-4.92,0-8.79-1.6-11.6-4.8-1.56-1.88-2.34-4.06-2.34-6.56v-39.84l-60.12,3.4c-.39,6.88-1.17,12.58-2.34,17.11-2.11,7.81-6.56,11.72-13.36,11.72-3.28,0-6.21-.98-8.79-2.93-2.97-2.27-4.45-5.43-4.45-9.49,0-2.42.9-5.66,2.7-9.73,2.03-4.61,4.26-12.15,6.68-22.62,1.41-6.41,4.92-9.61,10.55-9.61,4.61,0,7.54,1.95,8.79,5.86l60.35-3.4v-10.31l-44.65,2.7h-1.05c-2.97,0-5.51-1.05-7.62-3.16-1.88-2.03-2.81-4.41-2.81-7.15,0-3.67,1.41-6.56,4.22-8.67,1.64-1.33,3.52-2.03,5.62-2.11l120.23-7.27h.7M169.56,89.7c4.14,0,11.17.98,21.09,2.93,2.97.55,4.73.86,5.27.94,6.48,1.17,9.73,4.3,9.73,9.38,0,2.03-.66,3.91-1.99,5.62-1.8,2.5-4.41,3.75-7.85,3.75-1.48,0-3.48-.51-5.98-1.52-5.47-2.11-12.54-4.34-21.21-6.68-5.23-1.41-7.85-3.83-7.85-7.27,0-4.76,2.93-7.15,8.79-7.15M82.26,93.69c3.98,0,10.62.98,19.92,2.93,2.89.55,4.65.9,5.27,1.05,6.64,1.17,9.96,4.22,9.96,9.14,0,1.09-.23,2.23-.7,3.4-1.8,4.3-4.96,6.45-9.49,6.45-1.25,0-3.09-.47-5.51-1.41-6.56-2.66-14.02-5.19-22.38-7.62-4.06-1.09-6.09-3.44-6.09-7.03,0-4.61,2.77-6.91,8.32-6.91h.7M167.22,113.84c5.47,0,14.77,1.64,27.89,4.92,6.17,1.56,9.26,4.69,9.26,9.38,0,1.09-.23,2.23-.7,3.4-1.64,3.83-4.73,5.74-9.26,5.74-1.41,0-3.44-.51-6.09-1.52-6.72-2.34-12.46-4.34-17.23-5.98-3.12-1.09-5.35-1.91-6.68-2.46-3.52-1.41-5.27-3.67-5.27-6.8,0-4.45,2.7-6.68,8.09-6.68M79.21,117.71c4.22,0,13.36,1.45,27.42,4.34,6.02,1.17,9.02,4.3,9.02,9.37,0,2.19-.7,4.26-2.11,6.21-1.64,2.27-3.91,3.4-6.8,3.4-1.56,0-3.83-.59-6.8-1.76-4.92-1.95-12.03-4.45-21.33-7.5-4.84-1.64-7.27-4.1-7.27-7.38,0-1.48.39-2.73,1.17-3.75,1.56-1.95,3.79-2.93,6.68-2.93M237.16,140.06c6.97,0,10.45,3.84,10.45,11.51s-3.44,11.91-10.31,12.3l-85.66,3.98v7.5c22.66,5.39,40.94,11.56,54.84,18.52,7.19,3.59,10.78,8.28,10.78,14.06,0,3.05-1.02,5.9-3.05,8.55-2.73,3.59-6.21,5.39-10.43,5.39-3.05,0-7.07-1.56-12.07-4.69-11.25-6.87-24.61-13.95-40.08-21.21v43.95c0,7.66-4.92,11.48-14.77,11.48s-14.53-3.83-14.53-11.48v-70.66l-73.94,3.4h-.59c-6.95-.23-10.43-4.06-10.43-11.48s3.44-11.64,10.31-11.95l188.44-9.14c.35-.02.7-.03,1.04-.03M199.56,21.04h-1.04l-.33.02-120.13,7.26c-4.34.19-8.42,1.72-11.83,4.42-5.46,4.17-8.46,10.32-8.46,17.35,0,1.57.16,3.11.48,4.59-.81-.08-1.64-.12-2.49-.12-10.8,0-18.75,6.8-21.28,18.19-2.8,12.11-4.82,17.89-6.02,20.6-2.44,5.51-3.63,10.15-3.63,14.16,0,7.44,3.12,13.92,8.78,18.24,4.55,3.45,9.74,5.18,15.46,5.18,4.35,0,8.28-.98,11.68-2.84.62,2.78,2.12,6.21,5.53,9.22l-19.15.93c-12.8.58-20.78,9.37-20.78,22.94s8.07,22.04,21.06,22.48h.19s.19,0,.19,0h1.09s62.44-2.88,62.44-2.88v59.15c0,10.87,6.71,22.48,25.53,22.48s25.77-11.61,25.77-22.48v-26.32c8.61,4.4,16.41,8.73,23.3,12.94,6.92,4.32,12.59,6.33,17.85,6.33,7.71,0,14.34-3.36,19.18-9.73,3.51-4.58,5.29-9.71,5.29-15.22,0-7.06-2.93-16.93-16.86-23.9-4.97-2.49-10.48-4.88-16.51-7.18l42.92-2h.06s.06,0,.06,0c12.76-.73,20.69-9.65,20.69-23.29s-8.42-22.51-21.45-22.51c-.52,0-1.06.01-1.6.04l-20.3.98c.07-.65.1-1.3.1-1.95,0-1.69-.22-4.26-1.26-7.03,1.26.22,2.59.33,3.97.33,10.87,0,20.7-8.96,31.86-29.05,4.4-7.78,6.45-13.96,6.45-19.45,0-10.59-6.52-21.9-24.83-21.9h-1.72l-.31.02-10.19.58c1.25-2.78,1.9-5.87,1.9-9.17,0-5.33-1.89-10.28-5.45-14.32l-.03-.03-.03-.03c-4.14-4.61-9.73-7.05-16.16-7.05h0Z"/></svg>